<svg width="15" height="15" viewBox="0 0 15 15" fill="none" xmlns="http://www.w3.org/2000/svg">
<path d="M6.549 0.926956C6.849 0.00595602 8.15201 0.00595602 8.451 0.926956L9.521 4.21896C9.58638 4.41945 9.71346 4.59414 9.88408 4.71806C10.0547 4.84199 10.2601 4.9088 10.471 4.90896H13.933C14.902 4.90896 15.304 6.14896 14.521 6.71896L11.721 8.75296C11.55 8.87699 11.4227 9.05197 11.3573 9.25281C11.2919 9.45365 11.2918 9.67004 11.357 9.87096L12.427 13.163C12.727 14.084 11.672 14.851 10.887 14.281L8.087 12.247C7.91621 12.123 7.71056 12.0562 7.49951 12.0562C7.28845 12.0562 7.0828 12.123 6.912 12.247L4.112 14.281C3.328 14.851 2.274 14.084 2.573 13.163L3.643 9.87096C3.70818 9.67004 3.70806 9.45365 3.64267 9.25281C3.57728 9.05197 3.44997 8.87699 3.279 8.75296L0.480005 6.71996C-0.302995 6.14996 0.100005 4.90996 1.068 4.90996H4.529C4.74005 4.91001 4.94571 4.84329 5.11653 4.71935C5.28735 4.59541 5.41458 4.42061 5.48 4.21996L6.55 0.927956L6.549 0.926956Z" fill="#FFA049"/>
</svg>
